TITLE ""
FILE "P1Q_t_0310-0319.mp3" MP3
  TRACK 01 AUDIO
    TITLE "P1Q_t_0310-0319_01"
    INDEX 01 00:00:00
  TRACK 02 AUDIO
    TITLE "P1Q_t_0310-0319_02"
    INDEX 01 00:01:12
  TRACK 03 AUDIO
    TITLE "P1Q_t_0310-0319_03"
    INDEX 01 00:01:33
  TRACK 04 AUDIO
    TITLE "P1Q_t_0310-0319_04"
    INDEX 01 00:04:28
  TRACK 05 AUDIO
    TITLE "P1Q_t_0310-0319_05"
    INDEX 01 00:04:47
  TRACK 06 AUDIO
    TITLE "P1Q_t_0310-0319_06"
    INDEX 01 00:10:34
  TRACK 07 AUDIO
    TITLE "P1Q_t_0310-0319_07"
    INDEX 01 00:11:04
  TRACK 08 AUDIO
    TITLE "P1Q_t_0310-0319_08"
    INDEX 01 00:12:13
  TRACK 09 AUDIO
    TITLE "P1Q_t_0310-0319_09"
    INDEX 01 00:12:33
  TRACK 10 AUDIO
    TITLE "P1Q_t_0310-0319_10"
    INDEX 01 00:15:61
  TRACK 11 AUDIO
    TITLE "P1Q_t_0310-0319_11"
    INDEX 01 00:16:05
  TRACK 12 AUDIO
    TITLE "P1Q_t_0310-0319_12"
    INDEX 01 00:22:43
  TRACK 13 AUDIO
    TITLE "P1Q_t_0310-0319_13"
    INDEX 01 00:23:17
  TRACK 14 AUDIO
    TITLE "P1Q_t_0310-0319_14"
    INDEX 01 00:24:34
  TRACK 15 AUDIO
    TITLE "P1Q_t_0310-0319_15"
    INDEX 01 00:24:56
  TRACK 16 AUDIO
    TITLE "P1Q_t_0310-0319_16"
    INDEX 01 00:26:41
  TRACK 17 AUDIO
    TITLE "P1Q_t_0310-0319_17"
    INDEX 01 00:26:63
  TRACK 18 AUDIO
    TITLE "P1Q_t_0310-0319_18"
    INDEX 01 00:31:70
  TRACK 19 AUDIO
    TITLE "P1Q_t_0310-0319_19"
    INDEX 01 00:32:44
  TRACK 20 AUDIO
    TITLE "P1Q_t_0310-0319_20"
    INDEX 01 00:33:55
  TRACK 21 AUDIO
    TITLE "P1Q_t_0310-0319_21"
    INDEX 01 00:34:01
  TRACK 22 AUDIO
    TITLE "P1Q_t_0310-0319_22"
    INDEX 01 00:35:52
  TRACK 23 AUDIO
    TITLE "P1Q_t_0310-0319_23"
    INDEX 01 00:35:71
  TRACK 24 AUDIO
    TITLE "P1Q_t_0310-0319_24"
    INDEX 01 00:40:65
  TRACK 25 AUDIO
    TITLE "P1Q_t_0310-0319_25"
    INDEX 01 00:41:37
  TRACK 26 AUDIO
    TITLE "P1Q_t_0310-0319_26"
    INDEX 01 00:42:52
  TRACK 27 AUDIO
    TITLE "P1Q_t_0310-0319_27"
    INDEX 01 00:42:71
  TRACK 28 AUDIO
    TITLE "P1Q_t_0310-0319_28"
    INDEX 01 00:47:10
  TRACK 29 AUDIO
    TITLE "P1Q_t_0310-0319_29"
    INDEX 01 00:47:29
  TRACK 30 AUDIO
    TITLE "P1Q_t_0310-0319_30"
    INDEX 01 00:52:52
  TRACK 31 AUDIO
    TITLE "P1Q_t_0310-0319_31"
    INDEX 01 00:53:22
  TRACK 32 AUDIO
    TITLE "P1Q_t_0310-0319_32"
    INDEX 01 00:54:47
  TRACK 33 AUDIO
    TITLE "P1Q_t_0310-0319_33"
    INDEX 01 00:54:67
  TRACK 34 AUDIO
    TITLE "P1Q_t_0310-0319_34"
    INDEX 01 00:58:27
  TRACK 35 AUDIO
    TITLE "P1Q_t_0310-0319_35"
    INDEX 01 00:58:47
  TRACK 36 AUDIO
    TITLE "P1Q_t_0310-0319_36"
    INDEX 01 01:02:43
  TRACK 37 AUDIO
    TITLE "P1Q_t_0310-0319_37"
    INDEX 01 01:03:15
  TRACK 38 AUDIO
    TITLE "P1Q_t_0310-0319_38"
    INDEX 01 01:04:22
  TRACK 39 AUDIO
    TITLE "P1Q_t_0310-0319_39"
    INDEX 01 01:04:40
  TRACK 40 AUDIO
    TITLE "P1Q_t_0310-0319_40"
    INDEX 01 01:09:37
  TRACK 41 AUDIO
    TITLE "P1Q_t_0310-0319_41"
    INDEX 01 01:09:60
  TRACK 42 AUDIO
    TITLE "P1Q_t_0310-0319_42"
    INDEX 01 01:13:72
  TRACK 43 AUDIO
    TITLE "P1Q_t_0310-0319_43"
    INDEX 01 01:14:42
  TRACK 44 AUDIO
    TITLE "P1Q_t_0310-0319_44"
    INDEX 01 01:15:59
  TRACK 45 AUDIO
    TITLE "P1Q_t_0310-0319_45"
    INDEX 01 01:16:06
  TRACK 46 AUDIO
    TITLE "P1Q_t_0310-0319_46"
    INDEX 01 01:19:61
  TRACK 47 AUDIO
    TITLE "P1Q_t_0310-0319_47"
    INDEX 01 01:20:07
  TRACK 48 AUDIO
    TITLE "P1Q_t_0310-0319_48"
    INDEX 01 01:24:05
  TRACK 49 AUDIO
    TITLE "P1Q_t_0310-0319_49"
    INDEX 01 01:24:60
  TRACK 50 AUDIO
    TITLE "P1Q_t_0310-0319_50"
    INDEX 01 01:25:71
  TRACK 51 AUDIO
    TITLE "P1Q_t_0310-0319_51"
    INDEX 01 01:26:18
  TRACK 52 AUDIO
    TITLE "P1Q_t_0310-0319_52"
    INDEX 01 01:27:56
  TRACK 53 AUDIO
    TITLE "P1Q_t_0310-0319_53"
    INDEX 01 01:28:01
  TRACK 54 AUDIO
    TITLE "P1Q_t_0310-0319_54"
    INDEX 01 01:32:44
  TRACK 55 AUDIO
    TITLE "P1Q_t_0310-0319_55"
    INDEX 01 01:33:12
  TRACK 56 AUDIO
    TITLE "P1Q_t_0310-0319_56"
    INDEX 01 01:34:15
  TRACK 57 AUDIO
    TITLE "P1Q_t_0310-0319_57"
    INDEX 01 01:34:37
  TRACK 58 AUDIO
    TITLE "P1Q_t_0310-0319_58"
    INDEX 01 01:37:57
  TRACK 59 AUDIO
    TITLE "P1Q_t_0310-0319_59"
    INDEX 01 01:38:03
  TRACK 60 AUDIO
    TITLE "P1Q_t_0310-0319_60"
    INDEX 01 01:41:58
